# xmcd CD database file
#
# Track frame offsets:
#	150
#	19875
#	37662
#
# Disc length: 845 seconds
#
# Revision: 0
# Processed by: cddbd v1.5.1PL0 Copyright (c) Steve Scherf et al.
# Submitted via: CDex 1.51
#
DISCID=16034b03
DTITLE=Psycho le Cemu - 愛の唄
DYEAR=2002
DGENRE=JPop
TTITLE0=愛の唄
TTITLE1=Shangri-La
TTITLE2=アクエリア
EXTD=YEAR: 2002
EXTT0=
EXTT1=
EXTT2=
PLAYORDER=
